<svg width="52" height="52" viewBox="0 0 52 52" fill="none" xmlns="http://www.w3.org/2000/svg">
<path d="M46.7529 50.8087L30.5298 34.5856C29.0813 35.7444 27.4155 36.6618 25.5325 37.3377C23.6495 38.0137 21.6457 38.3517 19.5213 38.3517C14.2584 38.3517 9.80481 36.5285 6.16041 32.8822C2.51601 29.2358 0.692849 24.7822 0.690918 19.5213C0.690918 14.2585 2.51408 9.80484 6.16041 6.16044C9.80674 2.51604 14.2604 0.69288 19.5213 0.690948C24.7841 0.690948 29.2377 2.51411 32.8821 6.16044C36.5265 9.80677 38.3497 14.2604 38.3516 19.5213C38.3516 21.6458 38.0136 23.6495 37.3377 25.5325C36.6617 27.4156 35.7444 29.0813 34.5856 30.5298L50.8811 46.8253C51.4122 47.3564 51.6777 48.0083 51.6777 48.7808C51.6777 49.5533 51.388 50.2293 50.8086 50.8087C50.2775 51.3398 49.6016 51.6053 48.7808 51.6053C47.9599 51.6053 47.284 51.3398 46.7529 50.8087ZM19.5213 32.5577C23.1425 32.5577 26.221 31.2898 28.7568 28.754C31.2927 26.2182 32.5596 23.1406 32.5577 19.5213C32.5577 15.9001 31.2898 12.8216 28.7539 10.2857C26.2181 7.74992 23.1406 6.48297 19.5213 6.4849C15.9001 6.4849 12.8215 7.75282 10.2857 10.2886C7.74989 12.8245 6.48294 15.902 6.48487 19.5213C6.48487 23.1425 7.75279 26.221 10.2886 28.7569C12.8244 31.2927 15.902 32.5596 19.5213 32.5577Z" fill="#37374D"/>
</svg>
